<?xml version="1.0" encoding="utf-8"?>
<!-- Generator: Adobe Illustrator 26.3.1, SVG Export Plug-In . SVG Version: 6.00 Build 0)  -->
<svg version="1.1" id="Capa_1" xmlns="http://www.w3.org/2000/svg" xmlns:xlink="http://www.w3.org/1999/xlink" x="0px" y="0px"
	 viewBox="0 0 115.2 43.9" style="enable-background:new 0 0 115.2 43.9;" xml:space="preserve">
<style type="text/css">
	.st0{fill:#513629;}
	.st1{fill:#F89C24;}
</style>
<g>
	<g>
		<g>
			<g>
				<path class="st0" d="M16.3,33.7c-0.5-0.3-1-0.6-1.5-0.7c-0.5-0.2-1-0.2-1.6-0.2s-1.2,0.1-1.7,0.3s-1,0.5-1.3,0.9
					c-0.4,0.4-0.6,0.9-0.8,1.4C9.1,35.9,9,36.6,9,37.3s0.1,1.3,0.3,1.9c0.2,0.6,0.5,1.1,0.9,1.5s0.8,0.7,1.3,0.9s1.1,0.3,1.7,0.3
					s1.2-0.1,1.8-0.3s1.1-0.5,1.5-0.8l0.3,1.6c-0.5,0.3-1,0.5-1.6,0.7s-1.3,0.3-1.9,0.3c-0.8,0-1.6-0.1-2.3-0.4
					c-0.7-0.3-1.3-0.7-1.8-1.2S8.3,40.6,8,39.9s-0.4-1.6-0.4-2.5s0.1-1.7,0.4-2.5c0.3-0.7,0.7-1.4,1.2-1.9s1.1-0.9,1.8-1.2
					c0.7-0.3,1.5-0.4,2.3-0.4c0.7,0,1.3,0.1,2,0.3c0.6,0.2,1.2,0.4,1.7,0.7L16.3,33.7z"/>
				<path class="st0" d="M30.9,37.3c0,0.9-0.1,1.7-0.4,2.4s-0.7,1.4-1.2,1.9s-1.1,1-1.8,1.3c-0.7,0.3-1.5,0.5-2.3,0.5
					s-1.6-0.1-2.3-0.4c-0.7-0.3-1.3-0.7-1.8-1.2s-0.9-1.2-1.2-1.9c-0.3-0.7-0.4-1.6-0.4-2.5s0.1-1.7,0.4-2.4s0.7-1.4,1.2-1.9
					s1.1-1,1.8-1.3c0.7-0.3,1.5-0.5,2.3-0.5s1.6,0.1,2.3,0.4c0.7,0.3,1.3,0.7,1.8,1.2c0.5,0.5,0.9,1.2,1.2,1.9
					C30.8,35.5,30.9,36.4,30.9,37.3z M29.4,37.3c0-0.7-0.1-1.3-0.3-1.9c-0.2-0.6-0.5-1.1-0.9-1.5s-0.8-0.7-1.3-0.9s-1.1-0.3-1.7-0.3
					S24,32.8,23.5,33c-0.5,0.2-0.9,0.5-1.3,0.9s-0.7,0.9-0.9,1.4c-0.2,0.6-0.3,1.2-0.3,1.9s0.1,1.3,0.3,1.9c0.2,0.6,0.5,1.1,0.9,1.5
					s0.8,0.7,1.3,0.9s1.1,0.3,1.7,0.3s1.2-0.1,1.7-0.3s0.9-0.5,1.3-0.9s0.7-0.9,0.9-1.4S29.4,38,29.4,37.3z"/>
				<path class="st0" d="M34.3,31.6h7.1v1.5h-5.5v3.7h4.6v1.5h-4.6v4.8h-1.6V31.6z"/>
				<path class="st0" d="M44.5,31.6h7.1v1.5h-5.5v3.7h4.6v1.5h-4.6v4.8h-1.6V31.6z"/>
				<path class="st0" d="M54.7,43.1V31.6H62v1.5h-5.7v3.5h4.8v1.5h-4.8v3.6H62v1.5L54.7,43.1L54.7,43.1z"/>
				<path class="st0" d="M65.5,43.1V31.6h7.3v1.5H67v3.5h4.8v1.5H67v3.6h5.7v1.5L65.5,43.1L65.5,43.1z"/>
				<path class="st0" d="M88.4,33.7c-0.5-0.3-1-0.6-1.5-0.7c-0.5-0.2-1-0.2-1.6-0.2s-1.2,0.1-1.7,0.3s-1,0.5-1.3,0.9
					c-0.4,0.4-0.6,0.9-0.8,1.4c-0.2,0.6-0.3,1.2-0.3,1.9s0.1,1.3,0.3,1.9c0.2,0.6,0.5,1.1,0.9,1.5s0.8,0.7,1.3,0.9s1.1,0.3,1.7,0.3
					s1.2-0.1,1.8-0.3c0.6-0.2,1.1-0.5,1.5-0.8l0.3,1.6c-0.5,0.3-1,0.5-1.6,0.7s-1.3,0.3-1.9,0.3c-0.8,0-1.6-0.1-2.3-0.4
					c-0.7-0.3-1.3-0.7-1.8-1.2s-0.9-1.2-1.2-1.9c-0.3-0.7-0.4-1.6-0.4-2.5s0.1-1.7,0.4-2.5c0.3-0.7,0.7-1.4,1.2-1.9s1.1-0.9,1.8-1.2
					c0.7-0.3,1.5-0.4,2.3-0.4c0.7,0,1.3,0.1,2,0.3c0.7,0.2,1.2,0.4,1.7,0.7L88.4,33.7z"/>
				<path class="st0" d="M103,37.3c0,0.9-0.1,1.7-0.4,2.4s-0.7,1.4-1.2,1.9s-1.1,1-1.8,1.3c-0.7,0.3-1.5,0.5-2.3,0.5
					S95.7,43.3,95,43c-0.7-0.3-1.3-0.7-1.8-1.2s-0.9-1.2-1.2-1.9c-0.3-0.7-0.4-1.6-0.4-2.5s0.1-1.7,0.4-2.4s0.7-1.4,1.2-1.9
					s1.1-1,1.8-1.3c0.7-0.3,1.5-0.5,2.3-0.5s1.6,0.1,2.3,0.4c0.7,0.3,1.3,0.7,1.8,1.2c0.5,0.5,0.9,1.2,1.2,1.9
					C102.9,35.5,103,36.4,103,37.3z M101.5,37.3c0-0.7-0.1-1.3-0.3-1.9c-0.2-0.6-0.5-1.1-0.9-1.5S99.5,33.2,99,33s-1.1-0.3-1.7-0.3
					s-1.2,0.1-1.7,0.3c-0.5,0.2-0.9,0.5-1.3,0.9s-0.7,0.9-0.9,1.4c-0.2,0.6-0.3,1.2-0.3,1.9s0.1,1.3,0.3,1.9
					c0.2,0.6,0.5,1.1,0.9,1.5s0.8,0.7,1.3,0.9s1.1,0.3,1.7,0.3s1.2-0.1,1.7-0.3s0.9-0.5,1.3-0.9s0.7-0.9,0.9-1.4
					S101.5,38,101.5,37.3z"/>
				<path class="st0" d="M107.8,42.1c0,0.3-0.1,0.6-0.3,0.8c-0.2,0.2-0.5,0.4-0.8,0.4c-0.4,0-0.6-0.1-0.9-0.4
					c-0.2-0.2-0.3-0.5-0.3-0.8s0.1-0.6,0.3-0.8c0.2-0.2,0.5-0.3,0.9-0.3c0.3,0,0.6,0.1,0.8,0.3C107.6,41.6,107.8,41.8,107.8,42.1z"
					/>
			</g>
			<g>
				<path class="st0" d="M13.8,6.8v16.6h-7V6.8H0V1.1h20.6v5.7H13.8z"/>
				<path class="st0" d="M57.8,18.3c0.8,0,1.5-0.1,2-0.3c0.5-0.2,0.7-0.5,0.7-1c0-0.3-0.1-0.5-0.3-0.7c-0.2-0.2-0.5-0.4-0.8-0.5
					c-0.4-0.2-0.8-0.3-1.3-0.4c-0.5-0.1-1.1-0.3-1.8-0.5c-0.8-0.2-1.7-0.5-2.5-0.9c-0.9-0.3-1.7-0.8-2.4-1.3s-1.3-1.2-1.8-2
					s-0.7-1.8-0.7-2.9c0-2.2,0.8-3.9,2.3-5.3c1.5-1.3,3.8-2,6.9-2c2,0,3.7,0.2,5.2,0.6s2.7,0.8,3.8,1.4L66,8.3
					c-1.3-0.6-2.6-1.1-4-1.5s-2.7-0.6-3.9-0.6c-0.7,0-1.2,0.1-1.6,0.3c-0.4,0.2-0.6,0.5-0.6,0.9c0,0.3,0.1,0.5,0.4,0.7
					c0.3,0.2,0.6,0.4,1,0.5c0.4,0.2,0.9,0.3,1.4,0.5s1.1,0.3,1.6,0.4c0.8,0.3,1.7,0.6,2.6,1c0.9,0.3,1.6,0.8,2.3,1.3
					c0.7,0.5,1.2,1.2,1.7,1.9c0.4,0.8,0.6,1.7,0.6,2.7c0,1.1-0.2,2.1-0.6,3.1c-0.4,0.9-1,1.7-1.9,2.4c-0.8,0.7-1.8,1.2-3.1,1.5
					c-1.2,0.4-2.7,0.6-4.3,0.6c-1.9,0-3.6-0.2-5.2-0.6c-1.6-0.4-2.9-0.9-4-1.4l1.1-5.8c1.2,0.6,2.5,1.1,4,1.5
					C54.9,18.1,56.3,18.3,57.8,18.3z"/>
				<path class="st0" d="M82.7,6.8v16.6h-7.1V6.8h-6.8V1.1h20.6v5.7H82.7z"/>
				<path class="st0" d="M115.2,12.2c0,1.8-0.3,3.5-0.9,4.9c-0.6,1.5-1.5,2.7-2.6,3.7s-2.4,1.8-3.8,2.3c-1.5,0.5-3,0.8-4.7,0.8
					s-3.2-0.2-4.7-0.7S95.8,22,94.7,21c-1.1-1-1.9-2.2-2.5-3.6c-0.6-1.5-0.9-3.2-0.9-5.1c0-1.8,0.3-3.5,0.9-4.9s1.5-2.7,2.6-3.7
					s2.4-1.8,3.8-2.3c1.5-0.5,3-0.8,4.7-0.8s3.2,0.2,4.7,0.7s2.7,1.2,3.8,2.2c1.1,1,1.9,2.2,2.5,3.6
					C114.9,8.5,115.2,10.2,115.2,12.2z M108.1,12.3c0-1.8-0.4-3.4-1.3-4.5c-0.8-1.2-2.1-1.7-3.7-1.7c-1.7,0-2.9,0.6-3.7,1.7
					c-0.8,1.1-1.2,2.6-1.2,4.4c0,0.9,0.1,1.8,0.3,2.6c0.2,0.8,0.5,1.4,0.9,2s0.9,1,1.6,1.3c0.6,0.3,1.3,0.5,2.2,0.5
					c1.6,0,2.9-0.6,3.7-1.7C107.7,15.6,108.1,14.1,108.1,12.3z"/>
			</g>
		</g>
		<path class="st1" d="M41.6,2.4L41.6,2.4c-3.3-1.3-8.1-0.7-12.7,1.9c-7,3.9-11,11.2-8.9,16.1c2.1,5,9.5,5.8,16.6,1.8
			c5.5-3.1,9.1-8.1,9.4-12.5l0,0C46.8,3.8,41.7,2.4,41.6,2.4z M34.3,12.9c-6.7,1-10,5.7-10.2,5.2c-0.2-0.6,1.8-4.5,8.9-6.1
			c6.9-1.6,9.8-4.6,11.3-6.2c0.1-0.1,0.2-0.2,0.2-0.3C44.8,6,45,6.4,45,7C43.4,8.8,40.6,11.9,34.3,12.9z"/>
	</g>
</g>
</svg>
